<?xml version="1.0" encoding="UTF-8"?>
<svg xmlns="http://www.w3.org/2000/svg" xmlns:xlink="http://www.w3.org/1999/xlink" width="837.378pt" height="230.652pt" viewBox="0 0 837.378 230.652" version="1.2">
<defs>
<g>
<symbol overflow="visible" id="glyph0-0">
<path style="stroke:none;" d=""/>
</symbol>
<symbol overflow="visible" id="glyph0-1">
<path style="stroke:none;" d="M 16.953125 -10.84375 C 17.125 -11.515625 17.171875 -11.671875 18.5625 -11.671875 C 18.859375 -11.671875 19.046875 -11.671875 19.046875 -12 C 19.046875 -12.234375 18.875 -12.234375 18.53125 -12.234375 L 16.1875 -12.234375 C 15.734375 -12.234375 15.671875 -12.234375 15.453125 -11.890625 L 8.84375 -1.6875 L 7.359375 -11.765625 C 7.28125 -12.234375 7.265625 -12.234375 6.765625 -12.234375 L 4.3125 -12.234375 C 4 -12.234375 3.78125 -12.234375 3.78125 -11.90625 C 3.78125 -11.671875 3.953125 -11.671875 4.3125 -11.671875 C 4.390625 -11.671875 4.703125 -11.671875 5 -11.640625 C 5.34375 -11.609375 5.421875 -11.546875 5.421875 -11.375 C 5.421875 -11.28125 5.40625 -11.203125 5.359375 -11.015625 L 3.078125 -1.890625 C 2.84375 -0.96875 2.34375 -0.609375 1.15625 -0.5625 C 1.109375 -0.5625 0.859375 -0.53125 0.859375 -0.234375 C 0.859375 -0.203125 0.859375 0 1.109375 0 C 1.328125 0 1.765625 -0.015625 2 -0.03125 C 2.296875 -0.046875 2.328125 -0.046875 2.90625 -0.046875 C 3.34375 -0.046875 3.390625 -0.046875 3.8125 -0.03125 C 4.09375 -0.03125 4.46875 0 4.75 0 C 4.828125 0 5.0625 0 5.0625 -0.328125 C 5.0625 -0.53125 4.875 -0.5625 4.703125 -0.5625 C 3.875 -0.578125 3.546875 -0.84375 3.546875 -1.328125 C 3.546875 -1.453125 3.5625 -1.46875 3.609375 -1.71875 L 6.03125 -11.453125 L 6.046875 -11.453125 L 7.6875 -0.46875 C 7.71875 -0.171875 7.75 0 7.984375 0 C 8.203125 0 8.3125 -0.171875 8.421875 -0.34375 L 15.703125 -11.578125 L 15.71875 -11.578125 L 13.15625 -1.359375 C 13 -0.71875 12.96875 -0.5625 11.625 -0.5625 C 11.296875 -0.5625 11.078125 -0.5625 11.078125 -0.234375 C 11.078125 -0.078125 11.203125 0 11.359375 0 C 11.5625 0 12.265625 -0.015625 12.484375 -0.03125 C 12.75 -0.046875 13.203125 -0.046875 13.5625 -0.046875 C 13.609375 -0.046875 14.328125 -0.03125 14.703125 -0.03125 C 15.0625 -0.03125 15.453125 0 15.796875 0 C 15.90625 0 16.140625 0 16.140625 -0.328125 C 16.140625 -0.5625 15.953125 -0.5625 15.578125 -0.5625 C 15.5 -0.5625 15.1875 -0.5625 14.890625 -0.59375 C 14.5 -0.640625 14.484375 -0.71875 14.484375 -0.875 C 14.484375 -1.03125 14.515625 -1.1875 14.5625 -1.3125 Z M 16.953125 -10.84375 "/>
</symbol>
<symbol overflow="visible" id="glyph0-2">
<path style="stroke:none;" d="M 2.484375 -1.515625 C 2.859375 -1.96875 3.84375 -2.859375 4.625 -3.515625 C 5.9375 -4.640625 6.359375 -5.03125 6.59375 -5.28125 C 8.0625 -6.703125 8.546875 -7.609375 8.546875 -7.71875 C 8.546875 -7.734375 8.546875 -7.921875 8.3125 -7.921875 C 8.140625 -7.921875 8.109375 -7.859375 8.015625 -7.71875 C 7.796875 -7.359375 7.3125 -6.59375 6.703125 -6.59375 C 6.34375 -6.59375 6.109375 -6.78125 5.6875 -7.25 C 5.265625 -7.71875 4.921875 -7.921875 4.453125 -7.921875 C 3.078125 -7.921875 2.234375 -6.265625 2.234375 -5.8125 C 2.234375 -5.765625 2.28125 -5.625 2.46875 -5.625 C 2.65625 -5.625 2.703125 -5.734375 2.71875 -5.78125 C 3.0625 -6.640625 4.125 -6.640625 4.265625 -6.640625 C 4.671875 -6.640625 5.109375 -6.515625 5.5 -6.375 C 6.21875 -6.140625 6.515625 -6.140625 6.78125 -6.140625 C 6.234375 -5.515625 5.234375 -4.65625 4.09375 -3.6875 C 3.203125 -2.921875 2.65625 -2.375 2.25 -1.984375 C 1.59375 -1.296875 0.78125 -0.203125 0.78125 0 C 0.78125 0.125 0.875 0.203125 1.015625 0.203125 C 1.1875 0.203125 1.21875 0.125 1.3125 0.015625 C 2 -1.0625 2.671875 -1.125 2.859375 -1.125 C 3.3125 -1.125 3.5625 -0.859375 3.953125 -0.390625 C 4.375 0.046875 4.765625 0.203125 5.125 0.203125 C 6.96875 0.203125 8.046875 -2.09375 8.046875 -2.578125 C 8.046875 -2.734375 7.921875 -2.796875 7.796875 -2.796875 C 7.609375 -2.796875 7.578125 -2.671875 7.53125 -2.59375 C 7.0625 -1.265625 5.78125 -1.078125 5.3125 -1.078125 C 4.984375 -1.078125 4.625 -1.15625 4.078125 -1.34375 C 3.71875 -1.453125 3.296875 -1.578125 2.921875 -1.578125 C 2.734375 -1.578125 2.5625 -1.546875 2.484375 -1.515625 Z M 2.484375 -1.515625 "/>
</symbol>
<symbol overflow="visible" id="glyph1-0">
<path style="stroke:none;" d=""/>
</symbol>
<symbol overflow="visible" id="glyph1-1">
<path style="stroke:none;" d="M 4.28125 -7.578125 C 4.28125 -7.9375 4.234375 -7.9375 3.875 -7.9375 C 3.09375 -7.171875 1.875 -7.171875 1.4375 -7.171875 L 1.4375 -6.703125 C 1.75 -6.703125 2.546875 -6.703125 3.265625 -7.046875 L 3.265625 -1.015625 C 3.265625 -0.625 3.265625 -0.46875 2.03125 -0.46875 L 1.515625 -0.46875 L 1.515625 0 C 2.171875 -0.046875 3.109375 -0.046875 3.765625 -0.046875 C 4.4375 -0.046875 5.375 -0.046875 6.03125 0 L 6.03125 -0.46875 L 5.515625 -0.46875 C 4.28125 -0.46875 4.28125 -0.625 4.28125 -1.015625 Z M 4.28125 -7.578125 "/>
</symbol>
<symbol overflow="visible" id="glyph1-2">
<path style="stroke:none;" d="M 6.421875 -2.234375 L 5.984375 -2.234375 C 5.953125 -2.0625 5.84375 -1.28125 5.65625 -1.140625 C 5.578125 -1.078125 4.609375 -1.078125 4.4375 -1.078125 L 2.203125 -1.078125 L 3.734375 -2.3125 C 4.140625 -2.640625 5.203125 -3.40625 5.578125 -3.765625 C 5.9375 -4.125 6.421875 -4.734375 6.421875 -5.578125 C 6.421875 -7.0625 5.078125 -7.9375 3.46875 -7.9375 C 1.9375 -7.9375 0.859375 -6.921875 0.859375 -5.796875 C 0.859375 -5.1875 1.375 -5.125 1.5 -5.125 C 1.796875 -5.125 2.15625 -5.34375 2.15625 -5.765625 C 2.15625 -6.03125 2 -6.40625 1.46875 -6.40625 C 1.75 -7.015625 2.46875 -7.46875 3.296875 -7.46875 C 4.546875 -7.46875 5.21875 -6.546875 5.21875 -5.578125 C 5.21875 -4.734375 4.65625 -3.859375 3.8125 -3.09375 L 0.984375 -0.5 C 0.875 -0.375 0.859375 -0.375 0.859375 0 L 6.046875 0 Z M 6.421875 -2.234375 "/>
</symbol>
<symbol overflow="visible" id="glyph2-0">
<path style="stroke:none;" d=""/>
</symbol>
<symbol overflow="visible" id="glyph2-1">
<path style="stroke:none;" d="M 5.109375 -3.3125 L 5.109375 -4.421875 L 0.203125 -4.421875 L 0.203125 -3.3125 Z M 5.109375 -3.3125 "/>
</symbol>
<symbol overflow="visible" id="glyph2-2">
<path style="stroke:none;" d="M 5.8125 -7.15625 L 5.8125 -7.71875 L 3.21875 -7.71875 L 3.21875 -11.015625 L 2.71875 -11.015625 C 2.703125 -9.515625 2.078125 -7.65625 0.34375 -7.609375 L 0.34375 -7.15625 L 1.890625 -7.15625 L 1.890625 -2.21875 C 1.890625 -0.21875 3.34375 0.203125 4.296875 0.203125 C 5.5 0.203125 6.125 -0.953125 6.125 -2.21875 L 6.125 -3.234375 L 5.625 -3.234375 L 5.625 -2.28125 C 5.625 -0.953125 5.0625 -0.296875 4.421875 -0.296875 C 3.21875 -0.296875 3.21875 -1.875 3.21875 -2.203125 L 3.21875 -7.15625 Z M 5.8125 -7.15625 "/>
</symbol>
<symbol overflow="visible" id="glyph2-3">
<path style="stroke:none;" d="M 6.125 -1.296875 C 6.21875 -0.53125 6.734375 0.109375 7.5 0.109375 C 7.953125 0.109375 9.078125 -0.15625 9.078125 -1.59375 L 9.078125 -2.59375 L 8.578125 -2.59375 L 8.578125 -1.609375 C 8.578125 -1.421875 8.578125 -0.515625 7.9375 -0.515625 C 7.28125 -0.515625 7.28125 -1.375 7.28125 -1.671875 L 7.28125 -4.796875 C 7.28125 -5.8125 7.28125 -6.421875 6.484375 -7.15625 C 5.8125 -7.75 4.953125 -8.015625 4.0625 -8.015625 C 2.5625 -8.015625 1.3125 -7.265625 1.3125 -6.125 C 1.3125 -5.5625 1.6875 -5.265625 2.15625 -5.265625 C 2.625 -5.265625 2.96875 -5.625 2.96875 -6.09375 C 2.96875 -6.859375 2.1875 -6.953125 2.171875 -6.953125 C 2.65625 -7.40625 3.515625 -7.578125 4.03125 -7.578125 C 4.9375 -7.578125 5.96875 -6.890625 5.96875 -5.3125 L 5.96875 -4.734375 C 5 -4.6875 3.65625 -4.609375 2.453125 -4.03125 C 1.15625 -3.40625 0.765625 -2.46875 0.765625 -1.75 C 0.765625 -0.28125 2.5 0.203125 3.703125 0.203125 C 5.1875 0.203125 5.875 -0.78125 6.125 -1.296875 Z M 5.96875 -2.53125 C 5.96875 -0.78125 4.625 -0.25 3.828125 -0.25 C 2.984375 -0.25 2.203125 -0.859375 2.203125 -1.75 C 2.203125 -2.9375 3.21875 -4.1875 5.96875 -4.296875 Z M 5.96875 -2.53125 "/>
</symbol>
<symbol overflow="visible" id="glyph2-4">
<path style="stroke:none;" d="M 3.234375 -6.015625 C 3.84375 -7.0625 4.828125 -7.40625 5.59375 -7.40625 C 6.984375 -7.40625 8.0625 -5.796875 8.0625 -3.875 C 8.0625 -1.828125 6.84375 -0.25 5.390625 -0.25 C 4.578125 -0.25 3.90625 -0.71875 3.46875 -1.34375 C 3.234375 -1.703125 3.234375 -1.734375 3.234375 -2.078125 Z M 3.234375 -0.859375 C 3.703125 -0.390625 4.3125 0.203125 5.5 0.203125 C 7.625 0.203125 9.59375 -1.515625 9.59375 -3.875 C 9.59375 -6.125 7.84375 -7.921875 5.734375 -7.921875 C 4.765625 -7.921875 3.875 -7.515625 3.1875 -6.78125 L 3.1875 -7.921875 L 0.53125 -7.71875 L 0.53125 -7.15625 C 1.8125 -7.15625 1.921875 -7.0625 1.921875 -6.28125 L 1.921875 2.09375 C 1.921875 2.921875 1.71875 2.921875 0.53125 2.921875 L 0.53125 3.46875 C 1.375 3.4375 1.71875 3.421875 2.578125 3.421875 C 3.4375 3.421875 3.671875 3.4375 4.625 3.46875 L 4.625 2.921875 C 3.4375 2.921875 3.234375 2.921875 3.234375 2.09375 Z M 3.234375 -0.859375 "/>
</symbol>
<symbol overflow="visible" id="glyph2-5">
<path style="stroke:none;" d="M 10.703125 -4.625 L 10.203125 -4.625 C 10.015625 -2.8125 9.765625 -0.5625 6.546875 -0.5625 L 5 -0.5625 C 4.15625 -0.5625 4.125 -0.6875 4.125 -1.296875 L 4.125 -10.796875 C 4.125 -11.453125 4.1875 -11.671875 5.8125 -11.671875 L 6.390625 -11.671875 L 6.390625 -12.234375 C 5.765625 -12.171875 4.140625 -12.171875 3.421875 -12.171875 C 2.59375 -12.171875 1.484375 -12.171875 0.6875 -12.234375 L 0.6875 -11.671875 L 1.09375 -11.671875 C 2.46875 -11.671875 2.5 -11.484375 2.5 -10.8125 L 2.5 -1.421875 C 2.5 -0.75 2.46875 -0.5625 1.09375 -0.5625 L 0.6875 -0.5625 L 0.6875 0 L 10.203125 0 Z M 10.703125 -4.625 "/>
</symbol>
<symbol overflow="visible" id="glyph2-6">
<path style="stroke:none;" d="M 8.671875 -3.8125 C 8.671875 -6.15625 6.796875 -8.015625 4.609375 -8.015625 C 2.328125 -8.015625 0.515625 -6.109375 0.515625 -3.8125 C 0.515625 -1.578125 2.375 0.203125 4.578125 0.203125 C 6.859375 0.203125 8.671875 -1.609375 8.671875 -3.8125 Z M 4.609375 -0.296875 C 3.703125 -0.296875 2.953125 -0.75 2.546875 -1.453125 C 2.078125 -2.203125 2.0625 -3.15625 2.0625 -3.96875 C 2.0625 -4.640625 2.0625 -5.65625 2.5 -6.390625 C 3.046875 -7.3125 3.9375 -7.578125 4.578125 -7.578125 C 5.609375 -7.578125 6.34375 -7 6.703125 -6.390625 C 7.109375 -5.640625 7.125 -4.734375 7.125 -3.96875 C 7.125 -3.3125 7.125 -2.28125 6.671875 -1.484375 C 6.171875 -0.65625 5.359375 -0.296875 4.609375 -0.296875 Z M 4.609375 -0.296875 "/>
</symbol>
<symbol overflow="visible" id="glyph2-7">
<path style="stroke:none;" d="M 11.40625 -5.984375 C 11.796875 -7.078125 12.53125 -7.140625 12.90625 -7.15625 L 12.90625 -7.71875 C 12.1875 -7.65625 12.15625 -7.65625 11.5625 -7.65625 C 10.890625 -7.65625 10.640625 -7.65625 9.921875 -7.71875 L 9.921875 -7.15625 C 10.6875 -7.140625 10.9375 -6.65625 10.9375 -6.296875 C 10.9375 -6.125 10.90625 -6.015625 10.84375 -5.890625 L 9.203125 -1.421875 L 7.390625 -6.328125 C 7.3125 -6.546875 7.3125 -6.609375 7.3125 -6.65625 C 7.3125 -7.125 7.859375 -7.15625 8.328125 -7.15625 L 8.328125 -7.71875 C 7.5 -7.65625 6.765625 -7.65625 6.484375 -7.65625 C 5.921875 -7.65625 5.40625 -7.65625 4.828125 -7.71875 L 4.828125 -7.15625 C 5.40625 -7.15625 5.765625 -7.140625 5.96875 -6.890625 C 6.125 -6.703125 6.359375 -5.984375 6.359375 -5.921875 C 6.359375 -5.890625 6.265625 -5.6875 6.265625 -5.671875 L 4.796875 -1.640625 L 3.09375 -6.296875 C 2.984375 -6.578125 2.984375 -6.609375 2.984375 -6.671875 C 2.984375 -7.15625 3.6875 -7.15625 4.03125 -7.15625 L 4.03125 -7.71875 C 3.203125 -7.6875 2.796875 -7.65625 2.078125 -7.65625 C 1.484375 -7.65625 0.96875 -7.65625 0.359375 -7.71875 L 0.359375 -7.15625 C 1.21875 -7.15625 1.453125 -7.125 1.671875 -6.515625 L 3.96875 -0.203125 C 4.0625 0.015625 4.125 0.203125 4.390625 0.203125 C 4.65625 0.203125 4.734375 0 4.796875 -0.171875 L 6.625 -5.1875 L 8.46875 -0.171875 C 8.546875 0 8.609375 0.203125 8.875 0.203125 C 9.15625 0.203125 9.203125 0.015625 9.28125 -0.15625 Z M 11.40625 -5.984375 "/>
</symbol>
<symbol overflow="visible" id="glyph2-8">
<path style="stroke:none;" d="M 6.15625 -7.5625 C 6.15625 -7.859375 6.15625 -8.015625 5.9375 -8.015625 C 5.859375 -8.015625 5.8125 -8.015625 5.59375 -7.8125 C 5.546875 -7.765625 5.390625 -7.609375 5.28125 -7.515625 C 4.734375 -7.921875 4.171875 -8.015625 3.5625 -8.015625 C 1.203125 -8.015625 0.609375 -6.71875 0.609375 -5.796875 C 0.609375 -5.234375 0.859375 -4.765625 1.265625 -4.375 C 1.875 -3.8125 2.5625 -3.6875 3.46875 -3.53125 C 4.390625 -3.34375 4.6875 -3.296875 5.078125 -2.984375 C 5.265625 -2.84375 5.71875 -2.5 5.71875 -1.828125 C 5.71875 -0.25 3.90625 -0.25 3.65625 -0.25 C 1.828125 -0.25 1.359375 -1.765625 1.140625 -2.734375 C 1.09375 -2.921875 1.078125 -3.03125 0.859375 -3.03125 C 0.609375 -3.03125 0.609375 -2.890625 0.609375 -2.5625 L 0.609375 -0.265625 C 0.609375 0.03125 0.609375 0.203125 0.828125 0.203125 C 0.9375 0.203125 0.953125 0.171875 1.265625 -0.15625 C 1.34375 -0.265625 1.546875 -0.5 1.625 -0.59375 C 2.375 0.140625 3.203125 0.203125 3.65625 0.203125 C 5.859375 0.203125 6.625 -1.09375 6.625 -2.296875 C 6.625 -3.09375 6.265625 -3.578125 5.875 -4 C 5.265625 -4.578125 4.625 -4.703125 3.296875 -4.953125 C 2.828125 -5.046875 1.515625 -5.28125 1.515625 -6.296875 C 1.515625 -6.875 1.9375 -7.625 3.5625 -7.625 C 5.5 -7.625 5.625 -6.140625 5.65625 -5.6875 C 5.671875 -5.484375 5.671875 -5.375 5.90625 -5.375 C 6.15625 -5.375 6.15625 -5.5 6.15625 -5.84375 Z M 6.15625 -7.5625 "/>
</symbol>
<symbol overflow="visible" id="glyph2-9">
<path style="stroke:none;" d="M 10.71875 -12.171875 L 0.6875 -12.171875 L 0.6875 -11.625 L 1.09375 -11.625 C 2.46875 -11.625 2.5 -11.421875 2.5 -10.765625 L 2.5 -1.421875 C 2.5 -0.75 2.46875 -0.5625 1.09375 -0.5625 L 0.6875 -0.5625 L 0.6875 0 C 1.484375 -0.046875 2.59375 -0.046875 3.421875 -0.046875 C 4.140625 -0.046875 5.765625 -0.046875 6.390625 0 L 6.390625 -0.5625 L 5.8125 -0.5625 C 4.1875 -0.5625 4.125 -0.765625 4.125 -1.4375 L 4.125 -5.8125 L 5.734375 -5.8125 C 7.46875 -5.8125 7.65625 -5.25 7.65625 -3.71875 L 8.171875 -3.71875 L 8.171875 -8.46875 L 7.65625 -8.46875 C 7.65625 -6.953125 7.46875 -6.375 5.734375 -6.375 L 4.125 -6.375 L 4.125 -10.890625 C 4.125 -11.5 4.15625 -11.625 5 -11.625 L 7.25 -11.625 C 9.984375 -11.625 10.4375 -10.625 10.71875 -8.140625 L 11.234375 -8.140625 Z M 10.71875 -12.171875 "/>
</symbol>
<symbol overflow="visible" id="glyph2-10">
<path style="stroke:none;" d="M 3.296875 -7.921875 L 0.71875 -7.71875 L 0.71875 -7.15625 C 1.859375 -7.15625 2.015625 -7.0625 2.015625 -6.171875 L 2.015625 -1.375 C 2.015625 -0.5625 1.828125 -0.5625 0.640625 -0.5625 L 0.640625 0 C 1.453125 -0.03125 1.828125 -0.046875 2.609375 -0.046875 C 2.90625 -0.046875 3.65625 -0.046875 4.53125 0 L 4.53125 -0.5625 C 3.359375 -0.5625 3.296875 -0.640625 3.296875 -1.34375 Z M 3.34375 -11.03125 C 3.34375 -11.5625 2.921875 -12 2.375 -12 C 1.828125 -12 1.421875 -11.546875 1.421875 -11.03125 C 1.421875 -10.515625 1.828125 -10.0625 2.375 -10.0625 C 2.921875 -10.0625 3.34375 -10.5 3.34375 -11.03125 Z M 3.34375 -11.03125 "/>
</symbol>
<symbol overflow="visible" id="glyph2-11">
<path style="stroke:none;" d="M 3.296875 -12.421875 L 0.640625 -12.234375 L 0.640625 -11.671875 C 1.859375 -11.671875 2.015625 -11.546875 2.015625 -10.671875 L 2.015625 -1.375 C 2.015625 -0.5625 1.828125 -0.5625 0.640625 -0.5625 L 0.640625 0 C 1.484375 -0.03125 1.828125 -0.046875 2.65625 -0.046875 C 3.484375 -0.046875 3.796875 -0.03125 4.671875 0 L 4.671875 -0.5625 C 3.484375 -0.5625 3.296875 -0.5625 3.296875 -1.375 Z M 3.296875 -12.421875 "/>
</symbol>
<symbol overflow="visible" id="glyph2-12">
<path style="stroke:none;" d="M 7.15625 -4.09375 C 7.5625 -4.09375 7.640625 -4.09375 7.640625 -4.46875 C 7.640625 -6.328125 6.640625 -8.015625 4.34375 -8.015625 C 2.203125 -8.015625 0.515625 -6.15625 0.515625 -3.9375 C 0.515625 -1.59375 2.40625 0.203125 4.578125 0.203125 C 6.765625 0.203125 7.640625 -1.71875 7.640625 -2.125 C 7.640625 -2.25 7.5625 -2.359375 7.390625 -2.359375 C 7.21875 -2.359375 7.15625 -2.234375 7.140625 -2.171875 C 6.53125 -0.34375 4.9375 -0.296875 4.671875 -0.296875 C 3.8125 -0.296875 3.078125 -0.78125 2.671875 -1.390625 C 2.078125 -2.28125 2.0625 -3.34375 2.0625 -4.09375 Z M 2.078125 -4.53125 C 2.234375 -7.28125 3.84375 -7.578125 4.34375 -7.578125 C 5.34375 -7.578125 6.40625 -6.828125 6.421875 -4.53125 Z M 2.078125 -4.53125 "/>
</symbol>
<symbol overflow="visible" id="glyph2-13">
<path style="stroke:none;" d="M 3.1875 -4.09375 C 3.1875 -4.828125 3.390625 -7.46875 5.421875 -7.46875 L 5.421875 -7.453125 C 5.390625 -7.4375 5.109375 -7.21875 5.109375 -6.78125 C 5.109375 -6.296875 5.484375 -6 5.890625 -6 C 6.265625 -6 6.671875 -6.265625 6.671875 -6.796875 C 6.671875 -7.375 6.140625 -7.921875 5.34375 -7.921875 C 4.265625 -7.921875 3.515625 -7.15625 3.09375 -6.046875 L 3.078125 -6.046875 L 3.078125 -7.921875 L 0.53125 -7.71875 L 0.53125 -7.15625 C 1.75 -7.15625 1.921875 -7.03125 1.921875 -6.15625 L 1.921875 -1.375 C 1.921875 -0.5625 1.71875 -0.5625 0.53125 -0.5625 L 0.53125 0 C 1.484375 -0.03125 1.71875 -0.046875 2.625 -0.046875 C 3.34375 -0.046875 3.78125 -0.03125 4.90625 0 L 4.90625 -0.5625 L 4.546875 -0.5625 C 3.234375 -0.5625 3.1875 -0.75 3.1875 -1.421875 Z M 3.1875 -4.09375 "/>
</symbol>
<symbol overflow="visible" id="glyph2-14">
<path style="stroke:none;" d="M 12.640625 -4.09375 C 12.890625 -4.09375 13.265625 -4.09375 13.265625 -4.46875 C 13.265625 -4.875 12.921875 -4.875 12.640625 -4.875 L 7.53125 -4.875 L 7.53125 -9.984375 C 7.53125 -10.28125 7.53125 -10.625 7.140625 -10.625 C 6.765625 -10.625 6.765625 -10.25 6.765625 -9.984375 L 6.765625 -4.875 L 1.640625 -4.875 C 1.390625 -4.875 1.015625 -4.875 1.015625 -4.5 C 1.015625 -4.09375 1.359375 -4.09375 1.640625 -4.09375 L 6.765625 -4.09375 L 6.765625 1.015625 C 6.765625 1.3125 6.765625 1.640625 7.15625 1.640625 C 7.53125 1.640625 7.53125 1.265625 7.53125 1.015625 L 7.53125 -4.09375 Z M 12.640625 -4.09375 "/>
</symbol>
<symbol overflow="visible" id="glyph3-0">
<path style="stroke:none;" d=""/>
</symbol>
<symbol overflow="visible" id="glyph3-1">
<path style="stroke:none;" d="M 9.5 -2.671875 C 9.6875 -2.671875 9.984375 -2.671875 9.984375 -2.984375 C 9.984375 -3.296875 9.6875 -3.296875 9.5 -3.296875 L 1.984375 -3.296875 C 1.796875 -3.296875 1.5 -3.296875 1.5 -2.984375 C 1.5 -2.671875 1.796875 -2.671875 1.984375 -2.671875 Z M 9.5 -2.671875 "/>
</symbol>
<symbol overflow="visible" id="glyph4-0">
<path style="stroke:none;" d=""/>
</symbol>
<symbol overflow="visible" id="glyph4-1">
<path style="stroke:none;" d="M 11.578125 -5.953125 C 11.671875 -6.265625 11.6875 -6.34375 12.4375 -6.34375 C 12.703125 -6.34375 12.71875 -6.34375 12.765625 -6.375 C 12.8125 -6.4375 12.84375 -6.5625 12.84375 -6.625 C 12.84375 -6.796875 12.703125 -6.796875 12.53125 -6.796875 L 11.03125 -6.796875 C 10.8125 -6.796875 10.703125 -6.796875 10.546875 -6.59375 L 6.421875 -0.90625 L 5.140625 -6.53125 C 5.09375 -6.78125 5.03125 -6.796875 4.75 -6.796875 L 3.171875 -6.796875 C 2.96875 -6.796875 2.8125 -6.796875 2.8125 -6.515625 C 2.8125 -6.34375 2.9375 -6.34375 3.1875 -6.34375 C 3.28125 -6.34375 3.609375 -6.34375 3.828125 -6.296875 C 3.828125 -6.171875 3.828125 -6.15625 3.796875 -6.046875 L 2.5625 -1.109375 C 2.484375 -0.84375 2.40625 -0.46875 1.46875 -0.453125 C 1.390625 -0.453125 1.21875 -0.4375 1.21875 -0.171875 C 1.21875 -0.078125 1.296875 0 1.390625 0 C 1.578125 0 1.78125 -0.03125 1.953125 -0.03125 C 2.15625 -0.03125 2.34375 -0.046875 2.53125 -0.046875 C 2.734375 -0.046875 2.921875 -0.03125 3.109375 -0.03125 C 3.296875 -0.03125 3.5 0 3.6875 0 C 3.8125 0 3.921875 -0.0625 3.921875 -0.28125 C 3.921875 -0.453125 3.765625 -0.453125 3.65625 -0.453125 C 3.171875 -0.453125 2.96875 -0.59375 2.96875 -0.828125 C 2.96875 -0.890625 3 -0.953125 3.015625 -1.0625 L 4.3125 -6.296875 L 4.328125 -6.296875 L 5.6875 -0.28125 C 5.734375 -0.125 5.765625 0 5.953125 0 C 6.046875 0 6.171875 -0.046875 6.3125 -0.234375 L 10.765625 -6.375 L 10.765625 -6.359375 L 9.390625 -0.828125 C 9.3125 -0.53125 9.28125 -0.453125 8.53125 -0.453125 C 8.28125 -0.453125 8.125 -0.453125 8.125 -0.171875 C 8.125 -0.09375 8.1875 0 8.296875 0 C 8.515625 0 8.75 -0.03125 8.96875 -0.03125 C 9.1875 -0.03125 9.421875 -0.046875 9.640625 -0.046875 C 9.875 -0.046875 10.109375 -0.03125 10.328125 -0.03125 C 10.546875 -0.03125 10.796875 0 11.015625 0 C 11.078125 0 11.265625 0 11.265625 -0.28125 C 11.265625 -0.453125 11.125 -0.453125 10.9375 -0.453125 C 10.921875 -0.453125 10.671875 -0.453125 10.515625 -0.46875 C 10.265625 -0.484375 10.25 -0.5 10.25 -0.578125 C 10.25 -0.59375 10.25 -0.609375 10.28125 -0.71875 Z M 11.578125 -5.953125 "/>
</symbol>
<symbol overflow="visible" id="glyph5-0">
<path style="stroke:none;" d=""/>
</symbol>
<symbol overflow="visible" id="glyph5-1">
<path style="stroke:none;" d="M 3.96875 -6.328125 C 3.96875 -6.625 3.9375 -6.625 3.609375 -6.625 C 2.890625 -5.984375 1.796875 -5.984375 1.59375 -5.984375 L 1.421875 -5.984375 L 1.421875 -5.546875 L 1.59375 -5.546875 C 1.828125 -5.546875 2.46875 -5.578125 3.046875 -5.828125 L 3.046875 -0.859375 C 3.046875 -0.546875 3.046875 -0.4375 1.984375 -0.4375 L 1.5 -0.4375 L 1.5 0 C 2.046875 -0.046875 2.921875 -0.046875 3.5 -0.046875 C 4.078125 -0.046875 4.96875 -0.046875 5.515625 0 L 5.515625 -0.4375 L 5.015625 -0.4375 C 3.96875 -0.4375 3.96875 -0.546875 3.96875 -0.859375 Z M 3.96875 -6.328125 "/>
</symbol>
<symbol overflow="visible" id="glyph5-2">
<path style="stroke:none;" d="M 5.859375 -1.921875 L 5.4375 -1.921875 C 5.421875 -1.734375 5.3125 -1.109375 5.15625 -1.015625 C 5.078125 -0.953125 4.234375 -0.953125 4.09375 -0.953125 L 2.140625 -0.953125 C 2.796875 -1.4375 3.53125 -2 4.125 -2.40625 C 5.03125 -3.015625 5.859375 -3.59375 5.859375 -4.640625 C 5.859375 -5.921875 4.65625 -6.625 3.234375 -6.625 C 1.890625 -6.625 0.90625 -5.859375 0.90625 -4.875 C 0.90625 -4.359375 1.34375 -4.265625 1.484375 -4.265625 C 1.75 -4.265625 2.0625 -4.453125 2.0625 -4.859375 C 2.0625 -5.21875 1.8125 -5.421875 1.5 -5.4375 C 1.78125 -5.890625 2.359375 -6.1875 3.03125 -6.1875 C 3.984375 -6.1875 4.796875 -5.609375 4.796875 -4.640625 C 4.796875 -3.796875 4.21875 -3.171875 3.453125 -2.515625 L 1.03125 -0.453125 C 0.921875 -0.375 0.921875 -0.375 0.90625 -0.296875 L 0.90625 0 L 5.53125 0 Z M 5.859375 -1.921875 "/>
</symbol>
<symbol overflow="visible" id="glyph5-3">
<path style="stroke:none;" d="M 7.46875 -2.703125 L 7.046875 -2.703125 C 6.890625 -1.546875 6.640625 -0.4375 4.703125 -0.4375 L 3.46875 -0.4375 C 2.984375 -0.4375 2.984375 -0.5 2.984375 -0.8125 L 2.984375 -5.9375 C 2.984375 -6.25 2.984375 -6.359375 3.9375 -6.359375 L 4.375 -6.359375 L 4.375 -6.796875 C 3.8125 -6.765625 3.078125 -6.765625 2.515625 -6.765625 C 1.890625 -6.765625 1.328125 -6.78125 0.828125 -6.796875 L 0.828125 -6.359375 L 1.125 -6.359375 C 1.9375 -6.359375 1.9375 -6.265625 1.9375 -5.953125 L 1.9375 -0.84375 C 1.9375 -0.53125 1.9375 -0.4375 1.125 -0.4375 L 0.828125 -0.4375 L 0.828125 0 L 7.140625 0 Z M 7.46875 -2.703125 "/>
</symbol>
<symbol overflow="visible" id="glyph5-4">
<path style="stroke:none;" d="M 3 -3.03125 L 5.1875 -3.03125 C 6.515625 -3.03125 7.984375 -3.78125 7.984375 -4.890625 C 7.984375 -5.9375 6.671875 -6.796875 5.09375 -6.796875 L 0.84375 -6.796875 L 0.84375 -6.359375 L 1.140625 -6.359375 C 1.953125 -6.359375 1.953125 -6.265625 1.953125 -5.953125 L 1.953125 -0.84375 C 1.953125 -0.53125 1.953125 -0.4375 1.140625 -0.4375 L 0.84375 -0.4375 L 0.84375 0 C 1.296875 -0.015625 1.90625 -0.046875 2.484375 -0.046875 C 3.046875 -0.046875 3.65625 -0.015625 4.109375 0 L 4.109375 -0.4375 L 3.8125 -0.4375 C 3 -0.4375 3 -0.53125 3 -0.84375 Z M 4.84375 -6.359375 C 6.46875 -6.359375 6.8125 -5.65625 6.8125 -4.890625 C 6.8125 -4.078125 6.421875 -3.40625 4.84375 -3.40625 L 2.96875 -3.40625 L 2.96875 -5.984375 C 2.96875 -6.296875 2.96875 -6.359375 3.453125 -6.359375 Z M 4.84375 -6.359375 "/>
</symbol>
<symbol overflow="visible" id="glyph5-5">
<path style="stroke:none;" d="M 1.96875 -0.84375 C 1.96875 -0.53125 1.96875 -0.4375 1.171875 -0.4375 L 0.859375 -0.4375 L 0.859375 0 L 5.59375 0 C 7.125 0 8.328125 -0.859375 8.328125 -1.84375 C 8.328125 -2.546875 7.609375 -3.359375 6 -3.5625 C 7 -3.71875 7.984375 -4.296875 7.984375 -5.09375 C 7.984375 -6.015625 6.75 -6.796875 5.265625 -6.796875 L 0.859375 -6.796875 L 0.859375 -6.359375 L 1.171875 -6.359375 C 1.96875 -6.359375 1.96875 -6.265625 1.96875 -5.953125 Z M 2.953125 -3.703125 L 2.953125 -5.984375 C 2.953125 -6.296875 2.953125 -6.359375 3.4375 -6.359375 L 5.203125 -6.359375 C 6.265625 -6.359375 6.890625 -5.703125 6.890625 -5.09375 C 6.890625 -4.359375 6.015625 -3.703125 4.921875 -3.703125 Z M 3.4375 -0.4375 C 2.953125 -0.4375 2.953125 -0.5 2.953125 -0.8125 L 2.953125 -3.375 L 5.296875 -3.375 C 6.625 -3.375 7.203125 -2.5 7.203125 -1.84375 C 7.203125 -1.109375 6.375 -0.4375 5.21875 -0.4375 Z M 3.4375 -0.4375 "/>
</symbol>
<symbol overflow="visible" id="glyph5-6">
<path style="stroke:none;" d="M 7.828125 -5.953125 C 7.828125 -6.265625 7.828125 -6.359375 8.625 -6.359375 L 8.921875 -6.359375 L 8.921875 -6.796875 C 8.484375 -6.78125 7.859375 -6.765625 7.296875 -6.765625 C 6.734375 -6.765625 6.109375 -6.78125 5.65625 -6.796875 L 5.65625 -6.359375 L 5.96875 -6.359375 C 6.765625 -6.359375 6.765625 -6.265625 6.765625 -5.953125 L 6.765625 -3.75 L 2.984375 -3.75 L 2.984375 -5.953125 C 2.984375 -6.265625 2.984375 -6.359375 3.796875 -6.359375 L 4.09375 -6.359375 L 4.09375 -6.796875 C 3.640625 -6.78125 3.03125 -6.765625 2.453125 -6.765625 C 1.890625 -6.765625 1.28125 -6.78125 0.828125 -6.796875 L 0.828125 -6.359375 L 1.125 -6.359375 C 1.9375 -6.359375 1.9375 -6.265625 1.9375 -5.953125 L 1.9375 -0.84375 C 1.9375 -0.53125 1.9375 -0.4375 1.125 -0.4375 L 0.828125 -0.4375 L 0.828125 0 C 1.28125 -0.015625 1.890625 -0.046875 2.453125 -0.046875 C 3.03125 -0.046875 3.640625 -0.015625 4.09375 0 L 4.09375 -0.4375 L 3.796875 -0.4375 C 2.984375 -0.4375 2.984375 -0.53125 2.984375 -0.84375 L 2.984375 -3.3125 L 6.765625 -3.3125 L 6.765625 -0.84375 C 6.765625 -0.53125 6.765625 -0.4375 5.96875 -0.4375 L 5.65625 -0.4375 L 5.65625 0 C 6.109375 -0.015625 6.734375 -0.046875 7.296875 -0.046875 C 7.859375 -0.046875 8.484375 -0.015625 8.921875 0 L 8.921875 -0.4375 L 8.625 -0.4375 C 7.828125 -0.4375 7.828125 -0.53125 7.828125 -0.84375 Z M 7.828125 -5.953125 "/>
</symbol>
<symbol overflow="visible" id="glyph6-0">
<path style="stroke:none;" d=""/>
</symbol>
<symbol overflow="visible" id="glyph6-1">
<path style="stroke:none;" d="M 8.765625 -2.203125 C 8.921875 -2.203125 9.1875 -2.203125 9.1875 -2.484375 C 9.1875 -2.765625 8.921875 -2.765625 8.765625 -2.765625 L 2.015625 -2.765625 C 1.859375 -2.765625 1.59375 -2.765625 1.59375 -2.484375 C 1.59375 -2.203125 1.859375 -2.203125 2.015625 -2.203125 Z M 8.765625 -2.203125 "/>
</symbol>
<symbol overflow="visible" id="glyph7-0">
<path style="stroke:none;" d=""/>
</symbol>
<symbol overflow="visible" id="glyph7-1">
<path style="stroke:none;" d="M 13.578125 -11.6875 C 12.671875 -11.515625 12.328125 -10.828125 12.328125 -10.28125 C 12.328125 -9.59375 12.859375 -9.375 13.265625 -9.375 C 14.125 -9.375 14.734375 -10.109375 14.734375 -10.890625 C 14.734375 -12.09375 13.359375 -12.640625 12.15625 -12.640625 C 10.40625 -12.640625 9.421875 -10.921875 9.171875 -10.375 C 8.515625 -12.515625 6.734375 -12.640625 6.21875 -12.640625 C 3.296875 -12.640625 1.75 -8.890625 1.75 -8.25 C 1.75 -8.140625 1.859375 -8 2.0625 -8 C 2.296875 -8 2.34375 -8.171875 2.40625 -8.28125 C 3.375 -11.46875 5.296875 -12.0625 6.125 -12.0625 C 7.421875 -12.0625 7.6875 -10.859375 7.6875 -10.171875 C 7.6875 -9.546875 7.515625 -8.890625 7.15625 -7.515625 L 6.1875 -3.578125 C 5.765625 -1.859375 4.921875 -0.28125 3.40625 -0.28125 C 3.265625 -0.28125 2.546875 -0.28125 1.953125 -0.65625 C 2.984375 -0.859375 3.203125 -1.71875 3.203125 -2.0625 C 3.203125 -2.640625 2.78125 -2.984375 2.234375 -2.984375 C 1.546875 -2.984375 0.796875 -2.375 0.796875 -1.46875 C 0.796875 -0.265625 2.15625 0.28125 3.375 0.28125 C 4.75 0.28125 5.734375 -0.796875 6.328125 -1.984375 C 6.796875 -0.28125 8.21875 0.28125 9.28125 0.28125 C 12.203125 0.28125 13.75 -3.46875 13.75 -4.09375 C 13.75 -4.234375 13.640625 -4.359375 13.46875 -4.359375 C 13.203125 -4.359375 13.1875 -4.21875 13.09375 -3.984375 C 12.328125 -1.46875 10.65625 -0.28125 9.375 -0.28125 C 8.375 -0.28125 7.828125 -1.03125 7.828125 -2.203125 C 7.828125 -2.84375 7.9375 -3.296875 8.390625 -5.1875 L 9.40625 -9.078125 C 9.828125 -10.796875 10.796875 -12.0625 12.125 -12.0625 C 12.171875 -12.0625 12.984375 -12.0625 13.578125 -11.6875 Z M 13.578125 -11.6875 "/>
</symbol>
<symbol overflow="visible" id="glyph7-2">
<path style="stroke:none;" d="M 5.90625 -8.390625 C 5.953125 -8.5625 6.671875 -10 7.734375 -10.921875 C 8.484375 -11.609375 9.453125 -12.0625 10.578125 -12.0625 C 11.71875 -12.0625 12.125 -11.203125 12.125 -10.0625 C 12.125 -8.421875 10.953125 -5.15625 10.375 -3.609375 C 10.109375 -2.921875 9.96875 -2.546875 9.96875 -2.03125 C 9.96875 -0.75 10.859375 0.28125 12.234375 0.28125 C 14.90625 0.28125 15.90625 -3.921875 15.90625 -4.09375 C 15.90625 -4.234375 15.796875 -4.359375 15.625 -4.359375 C 15.359375 -4.359375 15.328125 -4.265625 15.1875 -3.78125 C 14.53125 -1.4375 13.4375 -0.28125 12.328125 -0.28125 C 12.03125 -0.28125 11.578125 -0.3125 11.578125 -1.234375 C 11.578125 -1.953125 11.890625 -2.8125 12.0625 -3.203125 C 12.640625 -4.78125 13.84375 -8 13.84375 -9.625 C 13.84375 -11.34375 12.84375 -12.640625 10.65625 -12.640625 C 8.109375 -12.640625 6.765625 -10.828125 6.25 -10.109375 C 6.15625 -11.75 4.984375 -12.640625 3.71875 -12.640625 C 2.8125 -12.640625 2.171875 -12.09375 1.6875 -11.125 C 1.171875 -10.09375 0.78125 -8.375 0.78125 -8.25 C 0.78125 -8.140625 0.890625 -8 1.09375 -8 C 1.3125 -8 1.34375 -8.03125 1.515625 -8.6875 C 1.984375 -10.4375 2.5 -12.0625 3.640625 -12.0625 C 4.296875 -12.0625 4.53125 -11.609375 4.53125 -10.75 C 4.53125 -10.109375 4.234375 -9 4.046875 -8.109375 L 3.234375 -5.015625 C 3.125 -4.46875 2.8125 -3.1875 2.671875 -2.671875 C 2.46875 -1.921875 2.15625 -0.578125 2.15625 -0.4375 C 2.15625 -0.03125 2.46875 0.28125 2.890625 0.28125 C 3.234375 0.28125 3.640625 0.109375 3.875 -0.3125 C 3.921875 -0.453125 4.1875 -1.46875 4.328125 -2.03125 L 4.953125 -4.609375 Z M 5.90625 -8.390625 "/>
</symbol>
<symbol overflow="visible" id="glyph8-0">
<path style="stroke:none;" d=""/>
</symbol>
<symbol overflow="visible" id="glyph8-1">
<path style="stroke:none;" d="M 7.15625 7.15625 L 7.15625 6.109375 L 4.390625 6.109375 L 4.390625 -20.4375 L 7.15625 -20.4375 L 7.15625 -21.484375 L 3.328125 -21.484375 L 3.328125 7.15625 Z M 7.15625 7.15625 "/>
</symbol>
<symbol overflow="visible" id="glyph8-2">
<path style="stroke:none;" d="M 4.4375 -21.484375 L 0.609375 -21.484375 L 0.609375 -20.4375 L 3.375 -20.4375 L 3.375 6.109375 L 0.609375 6.109375 L 0.609375 7.15625 L 4.4375 7.15625 Z M 4.4375 -21.484375 "/>
</symbol>
<symbol overflow="visible" id="glyph9-0">
<path style="stroke:none;" d=""/>
</symbol>
<symbol overflow="visible" id="glyph9-1">
<path style="stroke:none;" d="M 12.09375 -4.09375 C 12.40625 -4.09375 12.75 -4.09375 12.75 -4.5 C 12.75 -4.875 12.390625 -4.875 12.09375 -4.875 L 2.203125 -4.875 C 1.890625 -4.875 1.546875 -4.875 1.546875 -4.5 C 1.546875 -4.09375 1.875 -4.09375 2.203125 -4.09375 Z M 12.09375 -4.09375 "/>
</symbol>
</g>
<clipPath id="clip1">
  <path d="M 489 169 L 611 169 L 611 230.304688 L 489 230.304688 Z M 489 169 "/>
</clipPath>
<clipPath id="clip2">
  <path d="M 661 170 L 722 170 L 722 230.304688 L 661 230.304688 Z M 661 170 "/>
</clipPath>
</defs>
<g id="surface1">
<path style="fill-rule:nonzero;fill:rgb(89.99939%,89.99939%,89.99939%);fill-opacity:1;stroke-width:0.3985;stroke-linecap:butt;stroke-linejoin:miter;stroke:rgb(0%,0%,0%);stroke-opacity:1;stroke-miterlimit:10;" d="M 35.83721 -14.943341 L 134.245227 -14.943341 L 134.245227 14.943481 L 35.83721 14.943481 Z M 35.83721 -14.943341 " transform="matrix(1.996987,0,0,-1.996987,68.882776,30.240374)"/>
<g style="fill:rgb(0%,0%,0%);fill-opacity:1;">
  <use xlink:href="#glyph0-1" x="147.076799" y="34.717619"/>
</g>
<g style="fill:rgb(0%,0%,0%);fill-opacity:1;">
  <use xlink:href="#glyph1-1" x="164.855975" y="36.706618"/>
</g>
<g style="fill:rgb(0%,0%,0%);fill-opacity:1;">
  <use xlink:href="#glyph2-1" x="173.145468" y="34.717619"/>
  <use xlink:href="#glyph2-2" x="179.27999" y="34.717619"/>
  <use xlink:href="#glyph2-3" x="186.436932" y="34.717619"/>
  <use xlink:href="#glyph2-4" x="195.638714" y="34.717619"/>
</g>
<g style="fill:rgb(0%,0%,0%);fill-opacity:1;">
  <use xlink:href="#glyph2-5" x="212.004601" y="34.717619"/>
  <use xlink:href="#glyph2-6" x="223.505486" y="34.717619"/>
</g>
<g style="fill:rgb(0%,0%,0%);fill-opacity:1;">
  <use xlink:href="#glyph2-7" x="232.188001" y="34.717619"/>
  <use xlink:href="#glyph2-4" x="245.479465" y="34.717619"/>
  <use xlink:href="#glyph2-3" x="255.703668" y="34.717619"/>
  <use xlink:href="#glyph2-8" x="264.90545" y="34.717619"/>
  <use xlink:href="#glyph2-8" x="272.164455" y="34.717619"/>
</g>
<g style="fill:rgb(0%,0%,0%);fill-opacity:1;">
  <use xlink:href="#glyph2-9" x="285.547239" y="34.717619"/>
</g>
<g style="fill:rgb(0%,0%,0%);fill-opacity:1;">
  <use xlink:href="#glyph2-10" x="297.576344" y="34.717619"/>
</g>
<g style="fill:rgb(0%,0%,0%);fill-opacity:1;">
  <use xlink:href="#glyph2-11" x="302.67054" y="34.717619"/>
  <use xlink:href="#glyph2-2" x="307.782642" y="34.717619"/>
  <use xlink:href="#glyph2-12" x="314.939584" y="34.717619"/>
  <use xlink:href="#glyph2-13" x="323.126108" y="34.717619"/>
</g>
<path style="fill-rule:nonzero;fill:rgb(89.99939%,89.99939%,89.99939%);fill-opacity:1;stroke-width:0.3985;stroke-linecap:butt;stroke-linejoin:miter;stroke:rgb(0%,0%,0%);stroke-opacity:1;stroke-miterlimit:10;" d="M 55.151463 -57.464429 L 114.929017 -57.464429 L 114.929017 -27.575652 L 55.151463 -27.575652 Z M 55.151463 -57.464429 " transform="matrix(1.996987,0,0,-1.996987,68.882776,30.240374)"/>
<g style="fill:rgb(0%,0%,0%);fill-opacity:1;">
  <use xlink:href="#glyph0-2" x="206.36335" y="125.774236"/>
</g>
<g style="fill:rgb(0%,0%,0%);fill-opacity:1;">
  <use xlink:href="#glyph3-1" x="215.697267" y="118.167713"/>
</g>
<g style="fill:rgb(0%,0%,0%);fill-opacity:1;">
  <use xlink:href="#glyph4-1" x="229.578324" y="111.328032"/>
</g>
<g style="fill:rgb(0%,0%,0%);fill-opacity:1;">
  <use xlink:href="#glyph5-1" x="242.351053" y="114.313528"/>
</g>
<g style="fill:rgb(0%,0%,0%);fill-opacity:1;">
  <use xlink:href="#glyph6-1" x="250.117335" y="111.328032"/>
</g>
<g style="fill:rgb(0%,0%,0%);fill-opacity:1;">
  <use xlink:href="#glyph5-1" x="260.893077" y="111.328032"/>
</g>
<path style="fill:none;stroke-width:0.29;stroke-linecap:butt;stroke-linejoin:miter;stroke:rgb(0%,0%,0%);stroke-opacity:1;stroke-miterlimit:10;" d="M -0.0000995721 -0.000689446 L 19.071601 -0.000689446 " transform="matrix(1.996987,0,0,-1.996987,229.578324,115.182217)"/>
<g style="fill:rgb(0%,0%,0%);fill-opacity:1;">
  <use xlink:href="#glyph5-2" x="245.236699" y="123.291981"/>
</g>
<path style="fill-rule:nonzero;fill:rgb(89.99939%,89.99939%,89.99939%);fill-opacity:1;stroke-width:0.3985;stroke-linecap:butt;stroke-linejoin:miter;stroke:rgb(0%,0%,0%);stroke-opacity:1;stroke-miterlimit:10;" d="M 165.309603 -42.520041 C 165.309603 -37.328626 161.100136 -33.11916 155.906766 -33.11916 C 150.715351 -33.11916 146.505885 -37.328626 146.505885 -42.520041 C 146.505885 -47.713412 150.715351 -51.920922 155.906766 -51.920922 C 161.100136 -51.920922 165.309603 -47.713412 165.309603 -42.520041 Z M 165.309603 -42.520041 " transform="matrix(1.996987,0,0,-1.996987,68.882776,30.240374)"/>
<g style="fill:rgb(0%,0%,0%);fill-opacity:1;">
  <use xlink:href="#glyph2-14" x="373.065835" y="119.629507"/>
</g>
<path style="fill-rule:nonzero;fill:rgb(89.99939%,89.99939%,89.99939%);fill-opacity:1;stroke-width:0.3985;stroke-linecap:butt;stroke-linejoin:miter;stroke:rgb(0%,0%,0%);stroke-opacity:1;stroke-miterlimit:10;" d="M 191.743957 -57.464429 L 290.151974 -57.464429 L 290.151974 -27.575652 L 191.743957 -27.575652 Z M 191.743957 -57.464429 " transform="matrix(1.996987,0,0,-1.996987,68.882776,30.240374)"/>
<g style="fill:rgb(0%,0%,0%);fill-opacity:1;">
  <use xlink:href="#glyph0-1" x="458.419057" y="119.629507"/>
</g>
<g style="fill:rgb(0%,0%,0%);fill-opacity:1;">
  <use xlink:href="#glyph1-2" x="476.196235" y="121.618506"/>
</g>
<g style="fill:rgb(0%,0%,0%);fill-opacity:1;">
  <use xlink:href="#glyph2-1" x="484.485728" y="119.629507"/>
  <use xlink:href="#glyph2-2" x="490.62025" y="119.629507"/>
  <use xlink:href="#glyph2-3" x="497.777192" y="119.629507"/>
  <use xlink:href="#glyph2-4" x="506.978974" y="119.629507"/>
</g>
<g style="fill:rgb(0%,0%,0%);fill-opacity:1;">
  <use xlink:href="#glyph2-5" x="523.344861" y="119.629507"/>
  <use xlink:href="#glyph2-6" x="534.845747" y="119.629507"/>
</g>
<g style="fill:rgb(0%,0%,0%);fill-opacity:1;">
  <use xlink:href="#glyph2-7" x="543.528261" y="119.629507"/>
  <use xlink:href="#glyph2-4" x="556.819725" y="119.629507"/>
  <use xlink:href="#glyph2-3" x="567.043928" y="119.629507"/>
  <use xlink:href="#glyph2-8" x="576.245711" y="119.629507"/>
  <use xlink:href="#glyph2-8" x="583.504716" y="119.629507"/>
</g>
<g style="fill:rgb(0%,0%,0%);fill-opacity:1;">
  <use xlink:href="#glyph2-9" x="596.905405" y="119.629507"/>
  <use xlink:href="#glyph2-10" x="608.916605" y="119.629507"/>
  <use xlink:href="#glyph2-11" x="614.028706" y="119.629507"/>
  <use xlink:href="#glyph2-2" x="619.140808" y="119.629507"/>
  <use xlink:href="#glyph2-12" x="626.29775" y="119.629507"/>
  <use xlink:href="#glyph2-13" x="634.484274" y="119.629507"/>
</g>
<path style=" stroke:none;fill-rule:nonzero;fill:rgb(89.99939%,89.99939%,89.99939%);fill-opacity:1;" d="M 490.367188 229.910156 L 609.738281 229.910156 L 609.738281 170.222656 L 490.367188 170.222656 Z M 490.367188 229.910156 "/>
<g clip-path="url(#clip1)" clip-rule="nonzero">
<path style="fill:none;stroke-width:0.3985;stroke-linecap:butt;stroke-linejoin:miter;stroke:rgb(0%,0%,0%);stroke-opacity:1;stroke-miterlimit:10;" d="M 211.060167 -99.985518 L 270.835765 -99.985518 L 270.835765 -70.096741 L 211.060167 -70.096741 Z M 211.060167 -99.985518 " transform="matrix(1.996987,0,0,-1.996987,68.882776,30.240374)"/>
</g>
<g style="fill:rgb(0%,0%,0%);fill-opacity:1;">
  <use xlink:href="#glyph0-2" x="517.705607" y="210.684127"/>
</g>
<g style="fill:rgb(0%,0%,0%);fill-opacity:1;">
  <use xlink:href="#glyph3-1" x="527.037527" y="203.077603"/>
</g>
<g style="fill:rgb(0%,0%,0%);fill-opacity:1;">
  <use xlink:href="#glyph4-1" x="540.920581" y="196.23992"/>
</g>
<g style="fill:rgb(0%,0%,0%);fill-opacity:1;">
  <use xlink:href="#glyph5-2" x="553.69331" y="199.223418"/>
</g>
<g style="fill:rgb(0%,0%,0%);fill-opacity:1;">
  <use xlink:href="#glyph6-1" x="561.457596" y="196.23992"/>
</g>
<g style="fill:rgb(0%,0%,0%);fill-opacity:1;">
  <use xlink:href="#glyph5-1" x="572.235334" y="196.23992"/>
</g>
<path style="fill:none;stroke-width:0.29;stroke-linecap:butt;stroke-linejoin:miter;stroke:rgb(0%,0%,0%);stroke-opacity:1;stroke-miterlimit:10;" d="M 0.000647931 0.000177631 L 19.070392 0.000177631 " transform="matrix(1.996987,0,0,-1.996987,540.920581,200.094105)"/>
<g style="fill:rgb(0%,0%,0%);fill-opacity:1;">
  <use xlink:href="#glyph5-2" x="556.576959" y="208.203869"/>
</g>
<path style=" stroke:none;fill-rule:nonzero;fill:rgb(89.99939%,89.99939%,89.99939%);fill-opacity:1;" d="M 710.347656 200.066406 C 710.347656 189.695312 701.941406 181.289062 691.574219 181.289062 C 681.203125 181.289062 672.796875 189.695312 672.796875 200.066406 C 672.796875 210.433594 681.203125 218.839844 691.574219 218.839844 C 701.941406 218.839844 710.347656 210.433594 710.347656 200.066406 Z M 710.347656 200.066406 "/>
<g clip-path="url(#clip2)" clip-rule="nonzero">
<path style="fill:none;stroke-width:0.3985;stroke-linecap:butt;stroke-linejoin:miter;stroke:rgb(0%,0%,0%);stroke-opacity:1;stroke-miterlimit:10;" d="M 321.216351 -85.04113 C 321.216351 -79.847759 317.006884 -75.638293 311.815469 -75.638293 C 306.622099 -75.638293 302.412632 -79.847759 302.412632 -85.04113 C 302.412632 -90.232544 306.622099 -94.442011 311.815469 -94.442011 C 317.006884 -94.442011 321.216351 -90.232544 321.216351 -85.04113 Z M 321.216351 -85.04113 " transform="matrix(1.996987,0,0,-1.996987,68.882776,30.240374)"/>
</g>
<g style="fill:rgb(0%,0%,0%);fill-opacity:1;">
  <use xlink:href="#glyph2-14" x="684.408092" y="204.539398"/>
</g>
<path style="fill:none;stroke-width:0.3985;stroke-linecap:butt;stroke-linejoin:miter;stroke:rgb(0%,0%,0%);stroke-opacity:1;stroke-miterlimit:10;" d="M 0.0000183296 -0.000907949 L 32.050255 -0.000907949 " transform="matrix(1.996987,0,0,-1.996987,68.882776,30.240374)"/>
<path style=" stroke:none;fill-rule:nonzero;fill:rgb(0%,0%,0%);fill-opacity:1;" d="M 140.050781 30.242188 C 137.925781 29.84375 134.480469 28.648438 132.089844 27.257812 L 132.089844 33.226562 C 134.480469 31.832031 137.925781 30.636719 140.050781 30.242188 "/>
<g style="fill:rgb(0%,0%,0%);fill-opacity:1;">
  <use xlink:href="#glyph7-1" x="13.582212" y="37.403567"/>
</g>
<g style="fill:rgb(0%,0%,0%);fill-opacity:1;">
  <use xlink:href="#glyph8-1" x="29.524159" y="37.403567"/>
</g>
<g style="fill:rgb(0%,0%,0%);fill-opacity:1;">
  <use xlink:href="#glyph7-2" x="37.316402" y="37.403567"/>
</g>
<g style="fill:rgb(0%,0%,0%);fill-opacity:1;">
  <use xlink:href="#glyph8-2" x="54.061138" y="37.403567"/>
</g>
<path style="fill:none;stroke-width:0.3985;stroke-linecap:butt;stroke-linejoin:miter;stroke:rgb(0%,0%,0%);stroke-opacity:1;stroke-miterlimit:10;" d="M 14.173715 -0.000907949 L 14.173715 -42.520041 L 51.366464 -42.520041 " transform="matrix(1.996987,0,0,-1.996987,68.882776,30.240374)"/>
<path style=" stroke:none;fill-rule:nonzero;fill:rgb(0%,0%,0%);fill-opacity:1;" d="M 178.621094 115.152344 C 176.5 114.753906 173.050781 113.5625 170.664062 112.167969 L 170.664062 118.136719 C 173.050781 116.746094 176.5 115.550781 178.621094 115.152344 "/>
<path style="fill:none;stroke-width:0.3985;stroke-linecap:butt;stroke-linejoin:miter;stroke:rgb(0%,0%,0%);stroke-opacity:1;stroke-miterlimit:10;" d="M 134.44279 -0.000907949 L 155.906766 -0.000907949 L 155.906766 -29.332205 " transform="matrix(1.996987,0,0,-1.996987,68.882776,30.240374)"/>
<path style=" stroke:none;fill-rule:nonzero;fill:rgb(0%,0%,0%);fill-opacity:1;" d="M 380.226562 95.980469 C 380.625 93.859375 381.820312 90.410156 383.210938 88.023438 L 377.242188 88.023438 C 378.636719 90.410156 379.832031 93.859375 380.226562 95.980469 "/>
<g style="fill:rgb(0%,0%,0%);fill-opacity:1;">
  <use xlink:href="#glyph9-1" x="358.881236" y="87.292296"/>
</g>
<path style="fill:none;stroke-width:0.3985;stroke-linecap:butt;stroke-linejoin:miter;stroke:rgb(0%,0%,0%);stroke-opacity:1;stroke-miterlimit:10;" d="M 115.128537 -42.520041 L 142.720886 -42.520041 " transform="matrix(1.996987,0,0,-1.996987,68.882776,30.240374)"/>
<path style=" stroke:none;fill-rule:nonzero;fill:rgb(0%,0%,0%);fill-opacity:1;" d="M 361.054688 115.152344 C 358.933594 114.753906 355.484375 113.5625 353.097656 112.167969 L 353.097656 118.136719 C 355.484375 116.746094 358.933594 115.550781 361.054688 115.152344 "/>
<g style="fill:rgb(0%,0%,0%);fill-opacity:1;">
  <use xlink:href="#glyph2-14" x="339.708164" y="132.791648"/>
</g>
<path style="fill:none;stroke-width:0.3985;stroke-linecap:butt;stroke-linejoin:miter;stroke:rgb(0%,0%,0%);stroke-opacity:1;stroke-miterlimit:10;" d="M 134.44279 -0.000907949 L 180.668679 -0.000907949 " transform="matrix(1.996987,0,0,-1.996987,68.882776,30.240374)"/>
<path style=" stroke:none;fill-rule:nonzero;fill:rgb(0%,0%,0%);fill-opacity:1;" d="M 436.835938 30.242188 C 434.714844 29.84375 431.265625 28.648438 428.878906 27.257812 L 428.878906 33.226562 C 431.265625 31.832031 434.714844 30.636719 436.835938 30.242188 "/>
<g style="fill:rgb(0%,0%,0%);fill-opacity:1;">
  <use xlink:href="#glyph7-1" x="443.861021" y="37.403567"/>
</g>
<g style="fill:rgb(0%,0%,0%);fill-opacity:1;">
  <use xlink:href="#glyph5-3" x="459.800972" y="41.701083"/>
  <use xlink:href="#glyph5-4" x="468.063441" y="41.701083"/>
</g>
<g style="fill:rgb(0%,0%,0%);fill-opacity:1;">
  <use xlink:href="#glyph8-1" x="478.011496" y="37.403567"/>
</g>
<g style="fill:rgb(0%,0%,0%);fill-opacity:1;">
  <use xlink:href="#glyph7-2" x="485.80374" y="37.403567"/>
</g>
<g style="fill:rgb(0%,0%,0%);fill-opacity:1;">
  <use xlink:href="#glyph8-2" x="502.548476" y="37.403567"/>
</g>
<path style="fill:none;stroke-width:0.3985;stroke-linecap:butt;stroke-linejoin:miter;stroke:rgb(0%,0%,0%);stroke-opacity:1;stroke-miterlimit:10;" d="M 165.509122 -42.520041 L 187.958959 -42.520041 " transform="matrix(1.996987,0,0,-1.996987,68.882776,30.240374)"/>
<path style=" stroke:none;fill-rule:nonzero;fill:rgb(0%,0%,0%);fill-opacity:1;" d="M 451.394531 115.152344 C 449.273438 114.753906 445.824219 113.5625 443.4375 112.167969 L 443.4375 118.136719 C 445.824219 116.746094 449.273438 115.550781 451.394531 115.152344 "/>
<path style="fill:none;stroke-width:0.3985;stroke-linecap:butt;stroke-linejoin:miter;stroke:rgb(0%,0%,0%);stroke-opacity:1;stroke-miterlimit:10;" d="M 175.751114 -42.520041 L 175.751114 -85.04113 L 207.273212 -85.04113 " transform="matrix(1.996987,0,0,-1.996987,68.882776,30.240374)"/>
<path style=" stroke:none;fill-rule:nonzero;fill:rgb(0%,0%,0%);fill-opacity:1;" d="M 489.96875 200.066406 C 487.847656 199.667969 484.398438 198.472656 482.011719 197.082031 L 482.011719 203.050781 C 484.398438 201.65625 487.847656 200.464844 489.96875 200.066406 "/>
<path style="fill:none;stroke-width:0.3985;stroke-linecap:butt;stroke-linejoin:miter;stroke:rgb(0%,0%,0%);stroke-opacity:1;stroke-miterlimit:10;" d="M 271.035284 -85.04113 L 298.627633 -85.04113 " transform="matrix(1.996987,0,0,-1.996987,68.882776,30.240374)"/>
<path style=" stroke:none;fill-rule:nonzero;fill:rgb(0%,0%,0%);fill-opacity:1;" d="M 672.398438 200.066406 C 670.277344 199.667969 666.828125 198.472656 664.441406 197.082031 L 664.441406 203.050781 C 666.828125 201.65625 670.277344 200.464844 672.398438 200.066406 "/>
<g style="fill:rgb(0%,0%,0%);fill-opacity:1;">
  <use xlink:href="#glyph2-14" x="651.050421" y="217.703536"/>
</g>
<path style="fill:none;stroke-width:0.3985;stroke-linecap:butt;stroke-linejoin:miter;stroke:rgb(0%,0%,0%);stroke-opacity:1;stroke-miterlimit:10;" d="M 290.351493 -42.520041 L 311.815469 -42.520041 L 311.815469 -71.853294 " transform="matrix(1.996987,0,0,-1.996987,68.882776,30.240374)"/>
<path style=" stroke:none;fill-rule:nonzero;fill:rgb(0%,0%,0%);fill-opacity:1;" d="M 691.574219 180.890625 C 691.972656 178.769531 693.164062 175.320312 694.558594 172.933594 L 688.589844 172.933594 C 689.980469 175.320312 691.175781 178.769531 691.574219 180.890625 "/>
<g style="fill:rgb(0%,0%,0%);fill-opacity:1;">
  <use xlink:href="#glyph9-1" x="670.221496" y="172.204184"/>
</g>
<path style="fill:none;stroke-width:0.3985;stroke-linecap:butt;stroke-linejoin:miter;stroke:rgb(0%,0%,0%);stroke-opacity:1;stroke-miterlimit:10;" d="M 290.351493 -42.520041 L 336.575426 -42.520041 " transform="matrix(1.996987,0,0,-1.996987,68.882776,30.240374)"/>
<path style=" stroke:none;fill-rule:nonzero;fill:rgb(0%,0%,0%);fill-opacity:1;" d="M 748.179688 115.152344 C 746.058594 114.753906 742.609375 113.5625 740.222656 112.167969 L 740.222656 118.136719 C 742.609375 116.746094 746.058594 115.550781 748.179688 115.152344 "/>
<g style="fill:rgb(0%,0%,0%);fill-opacity:1;">
  <use xlink:href="#glyph7-1" x="755.201282" y="122.315455"/>
</g>
<g style="fill:rgb(0%,0%,0%);fill-opacity:1;">
  <use xlink:href="#glyph5-5" x="771.141232" y="126.612971"/>
  <use xlink:href="#glyph5-4" x="780.439246" y="126.612971"/>
</g>
<g style="fill:rgb(0%,0%,0%);fill-opacity:1;">
  <use xlink:href="#glyph8-1" x="790.388193" y="122.315455"/>
</g>
<g style="fill:rgb(0%,0%,0%);fill-opacity:1;">
  <use xlink:href="#glyph7-2" x="798.180436" y="122.315455"/>
</g>
<g style="fill:rgb(0%,0%,0%);fill-opacity:1;">
  <use xlink:href="#glyph8-2" x="814.925172" y="122.315455"/>
</g>
<path style="fill:none;stroke-width:0.3985;stroke-linecap:butt;stroke-linejoin:miter;stroke:rgb(0%,0%,0%);stroke-opacity:1;stroke-miterlimit:10;" d="M 321.41587 -85.04113 L 336.575426 -85.04113 " transform="matrix(1.996987,0,0,-1.996987,68.882776,30.240374)"/>
<path style=" stroke:none;fill-rule:nonzero;fill:rgb(0%,0%,0%);fill-opacity:1;" d="M 748.179688 200.066406 C 746.058594 199.667969 742.609375 198.472656 740.222656 197.082031 L 740.222656 203.050781 C 742.609375 201.65625 746.058594 200.464844 748.179688 200.066406 "/>
<g style="fill:rgb(0%,0%,0%);fill-opacity:1;">
  <use xlink:href="#glyph7-1" x="755.201282" y="207.225345"/>
</g>
<g style="fill:rgb(0%,0%,0%);fill-opacity:1;">
  <use xlink:href="#glyph5-6" x="771.141232" y="211.522861"/>
  <use xlink:href="#glyph5-4" x="780.89584" y="211.522861"/>
</g>
<g style="fill:rgb(0%,0%,0%);fill-opacity:1;">
  <use xlink:href="#glyph8-1" x="790.843506" y="207.225345"/>
</g>
<g style="fill:rgb(0%,0%,0%);fill-opacity:1;">
  <use xlink:href="#glyph7-2" x="798.635749" y="207.225345"/>
</g>
<g style="fill:rgb(0%,0%,0%);fill-opacity:1;">
  <use xlink:href="#glyph8-2" x="815.380485" y="207.225345"/>
</g>
</g>
</svg>
